<svg xmlns="http://www.w3.org/2000/svg" width="49" height="30" viewBox="0 0 49 30">
    <g fill="#2979FF" fill-rule="evenodd">
        <circle cx="32.5" cy="15.5" r="1.5"/>
        <circle cx="38.5" cy="15.5" r="1.5"/>
        <circle cx="26.5" cy="15.5" r="1.5"/>
        <circle cx="20.5" cy="15.5" r="1.5"/>
        <circle cx="14.5" cy="15.5" r="1.5"/>
        <circle cx="8.5" cy="15.5" r="1.5"/>
        <circle cx="2.5" cy="15.5" r="1.5"/>
        <path fill-rule="nonzero" d="M35.043 1.523a1.015 1.015 0 0 0 0 1.4l11.91 12.3-11.91 12.325a1.015 1.015 0 0 0 0 1.4.934.934 0 0 0 1.352 0l12.562-13.001a.983.983 0 0 0 .28-.7c0-.24-.093-.506-.28-.699l-12.562-13a.915.915 0 0 0-1.352-.025z"/>
    </g>
</svg>
