<svg xmlns="http://www.w3.org/2000/svg" width="56" height="59" viewBox="0 0 56 59">
    <g fill="#2979FF" fill-rule="nonzero">
        <path d="M54.735 55.818L31.454 38.173c-2.065-1.573-4.845-1.575-6.907-.002L1.265 55.818a1.206 1.206 0 0 0-.235 1.694 1.211 1.211 0 0 0 1.694.235l23.284-17.65a3.261 3.261 0 0 1 3.984.002l23.284 17.648a1.208 1.208 0 0 0 1.694-.235c.404-.532.3-1.29-.235-1.694z"/>
        <path d="M55.478 20.971a1.208 1.208 0 0 0-1.694-.235l-23.415 17.72a1.208 1.208 0 1 0 1.46 1.93l23.414-17.721a1.208 1.208 0 0 0 .235-1.694zM25.63 38.454L2.217 20.734a1.208 1.208 0 1 0-1.46 1.929l23.415 17.72a1.2 1.2 0 0 0 .731.246 1.208 1.208 0 0 0 .728-2.176z"/>
        <path d="M54.527 19.616l-3.971-3.309a1.21 1.21 0 1 0-1.551 1.856l3.968 3.309c.281.232.438.574.438.932V55.15c0 .666-.544 1.21-1.21 1.21H3.8c-.666 0-1.21-.544-1.21-1.21V22.404c0-.36.157-.7.435-.932l3.97-3.308a1.21 1.21 0 1 0-1.55-1.859l-3.973 3.31a3.633 3.633 0 0 0-1.302 2.789V55.15a3.635 3.635 0 0 0 3.63 3.63H52.2a3.635 3.635 0 0 0 3.63-3.63V22.404c0-1.08-.474-2.094-1.304-2.788z"/>
        <path d="M49.781.698H6.22a1.21 1.21 0 0 0-1.21 1.21v23.204a1.21 1.21 0 0 0 2.42 0V3.118h41.142v22.006a1.21 1.21 0 0 0 2.42 0V1.908a1.21 1.21 0 0 0-1.21-1.21z"/>
        <path d="M28 10.378a1.21 1.21 0 0 0-1.21 1.21v14.52a1.21 1.21 0 0 0 2.42 0v-14.52a1.21 1.21 0 0 0-1.21-1.21z"/>
        <path d="M35.26 17.638H20.74a1.21 1.21 0 0 0 0 2.42h14.52a1.21 1.21 0 0 0 0-2.42z"/>
    </g>
</svg>
