<svg xmlns="http://www.w3.org/2000/svg" width="128" height="80" viewBox="0 0 128 80">
    <g fill="#2979FF" fill-rule="evenodd">
        <g fill-rule="nonzero">
            <path d="M70.275 16.223c1.873-1.708 3.058-4.16 3.058-6.89C73.333 4.188 69.147 0 64 0s-9.333 4.188-9.333 9.333c0 2.73 1.185 5.182 3.058 6.89C52.193 17.289 48 22.16 48 28v5.333c0 .738.597 1.334 1.333 1.334h29.334c.736 0 1.333-.596 1.333-1.334V28c0-5.839-4.193-10.71-9.725-11.777zm-12.942-6.89A6.674 6.674 0 0 1 64 2.667a6.674 6.674 0 0 1 6.667 6.666A6.674 6.674 0 0 1 64 16a6.674 6.674 0 0 1-6.667-6.667zm20 22.667H50.667v-4c0-5.145 4.186-9.333 9.333-9.333h8c5.147 0 9.333 4.188 9.333 9.333v4zM22.275 61.556c1.873-1.708 3.058-4.16 3.058-6.89 0-5.145-4.186-9.333-9.333-9.333s-9.333 4.188-9.333 9.334c0 2.729 1.185 5.181 3.058 6.889C4.193 62.623 0 67.495 0 73.333v5.334C0 79.404.597 80 1.333 80h29.334c.736 0 1.333-.596 1.333-1.333v-5.334c0-5.838-4.193-10.71-9.725-11.777zm-12.942-6.89A6.674 6.674 0 0 1 16 48a6.674 6.674 0 0 1 6.667 6.667A6.674 6.674 0 0 1 16 61.333a6.674 6.674 0 0 1-6.667-6.666zm20 22.667H2.667v-4C2.667 68.188 6.853 64 12 64h8c5.147 0 9.333 4.188 9.333 9.333v4zM70.275 61.556c1.873-1.708 3.058-4.16 3.058-6.89 0-5.145-4.186-9.333-9.333-9.333s-9.333 4.188-9.333 9.334c0 2.729 1.185 5.181 3.058 6.889C52.193 62.623 48 67.495 48 73.333v5.334c0 .737.597 1.333 1.333 1.333h29.334c.736 0 1.333-.596 1.333-1.333v-5.334c0-5.838-4.193-10.71-9.725-11.777zm-12.942-6.89A6.674 6.674 0 0 1 64 48a6.674 6.674 0 0 1 6.667 6.667A6.674 6.674 0 0 1 64 61.333a6.674 6.674 0 0 1-6.667-6.666zm20 22.667H50.667v-4C50.667 68.188 54.853 64 60 64h8c5.147 0 9.333 4.188 9.333 9.333v4zM118.275 61.556c1.873-1.708 3.058-4.16 3.058-6.89 0-5.145-4.186-9.333-9.333-9.333s-9.333 4.188-9.333 9.334c0 2.729 1.185 5.181 3.058 6.889C100.193 62.623 96 67.495 96 73.333v5.334c0 .737.597 1.333 1.333 1.333h29.334c.736 0 1.333-.596 1.333-1.333v-5.334c0-5.838-4.193-10.71-9.725-11.777zm-12.942-6.89A6.674 6.674 0 0 1 112 48a6.674 6.674 0 0 1 6.667 6.667A6.674 6.674 0 0 1 112 61.333a6.674 6.674 0 0 1-6.667-6.666zm20 22.667H98.667v-4c0-5.145 4.186-9.333 9.333-9.333h8c5.147 0 9.333 4.188 9.333 9.333v4z"/>
        </g>
        <path d="M84 12h3v3h-3zM93 12h3v3h-3zM102 12h3v3h-3zM111 12h3v3h-3zM111 21h3v3h-3zM111 30h3v3h-3zM111 39h3v3h-3zM27 12h-3v3h3zM36 12h-3v3h3zM45 12h-3v3h3zM32 56h-3v3h3zM80 56h-3v3h3zM41 56h-3v3h3zM89 56h-3v3h3zM50 56h-3v3h3zM98 56h-3v3h3zM18 12h-3v3h3zM18 21h-3v3h3zM18 30h-3v3h3zM18 39h-3v3h3zM66 38h-3v3h3z"/>
    </g>
</svg>
