<svg xmlns="http://www.w3.org/2000/svg" width="80" height="80" viewBox="0 0 80 80">
    <g fill="#2979FF" fill-rule="nonzero">
        <path d="M18.667 0C8.357 0 0 8.357 0 18.667c0 10.309 8.357 18.666 18.667 18.666 10.309 0 18.666-8.357 18.666-18.666C37.323 8.362 28.971.01 18.667 0zm0 34.667c-8.837 0-16-7.164-16-16 0-8.837 7.163-16 16-16 8.836 0 16 7.163 16 16-.01 8.832-7.168 15.99-16 16zM61.333 37.333C71.643 37.333 80 28.976 80 18.667 80 8.357 71.643 0 61.333 0 51.024 0 42.667 8.357 42.667 18.667c.01 10.304 8.362 18.655 18.666 18.666zm0-34.666c8.837 0 16 7.163 16 16 0 8.836-7.163 16-16 16-8.836 0-16-7.164-16-16 .01-8.833 7.168-15.99 16-16zM18.667 42.667C8.357 42.667 0 51.024 0 61.333 0 71.643 8.357 80 18.667 80c10.309 0 18.666-8.357 18.666-18.667-.01-10.304-8.362-18.655-18.666-18.666zm0 34.666c-8.837 0-16-7.163-16-16 0-8.836 7.163-16 16-16 8.836 0 16 7.164 16 16-.01 8.833-7.168 15.99-16 16zM61.333 42.667c-10.309 0-18.666 8.357-18.666 18.666C42.667 71.643 51.024 80 61.333 80 71.643 80 80 71.643 80 61.333c-.011-10.304-8.362-18.655-18.667-18.666zm0 34.666c-8.836 0-16-7.163-16-16 0-8.836 7.164-16 16-16 8.837 0 16 7.164 16 16-.01 8.833-7.167 15.99-16 16z"/>
        <path d="M18.667 6.667c-.737 0-1.334.597-1.334 1.333v9.333h-6.666a1.333 1.333 0 0 0 0 2.667h8c.736 0 1.333-.597 1.333-1.333V8c0-.736-.597-1.333-1.333-1.333zM65.724 24.943a1.333 1.333 0 0 0 1.885-1.886l-4.942-4.942V8A1.333 1.333 0 0 0 60 8v10.667c0 .353.14.692.39.942l5.334 5.334zM25.267 52.848l-6.6 6.6-4.714-4.715a1.332 1.332 0 0 0-2.249.59c-.121.465.017.96.364 1.295l5.656 5.658c.52.52 1.365.52 1.885 0l7.543-7.543a1.333 1.333 0 0 0-1.885-1.885zM61.333 49.333c-.736 0-1.333.597-1.333 1.334v11.448l-5.61 5.609a1.333 1.333 0 1 0 1.886 1.885l6-6c.25-.25.39-.589.39-.942v-12c0-.737-.596-1.334-1.333-1.334z"/>
    </g>
</svg>
