<?xml version="1.0" encoding="utf-8"?>
<!-- Generator: Adobe Illustrator 22.1.0, SVG Export Plug-In . SVG Version: 6.00 Build 0)  -->
<svg version="1.1" xmlns="http://www.w3.org/2000/svg" xmlns:xlink="http://www.w3.org/1999/xlink" x="0px" y="0px"
	 viewBox="0 0 500 500" style="enable-background:new 0 0 500 500;" xml:space="preserve">
<style type="text/css">
	.st0{fill:#E3EEFF;}
	.st1{fill:#F3F8FF;}
	.st2{fill:#D1E3FF;}
	.st3{fill:#F5FCFF;}
	.st4{fill:#FFFFFF;}
	.st5{display:none;}
	.st6{display:inline;opacity:0.4;fill:#D4E8FF;}
	.st7{fill:#FFC3BD;}
	.st8{fill:#0053CC;}
	.st9{fill:#004DAA;}
	.st10{fill:#14365B;}
	.st11{fill:#F29994;}
	.st12{fill:#0F264C;}
	.st13{fill:#19437F;}
	.st14{fill:#4EA4F9;}
	.st15{fill:#133A68;}
	.st16{fill:#ED847E;}
	.st17{fill:#9FC6FF;}
	.st18{fill:#DCE9FF;}
	.st19{fill:#77B3FC;}
	.st20{fill:#B6D7FF;}
</style>
<g id="Background_2">
	<g>
		<g>
			<g>
				
					<rect x="313.9" y="256.6" transform="matrix(-1 -1.224647e-16 1.224647e-16 -1 647.0963 638.984)" class="st0" width="19.3" height="125.8"/>
			</g>
			<g>
				
					<rect x="309.3" y="288.5" transform="matrix(-0.9014 0.4329 -0.4329 -0.9014 728.9504 470.3483)" class="st0" width="3.3" height="59.3"/>
			</g>
			<path class="st0" d="M315.9,298.2c0,0,3.5,17.4,22.4,12.3c8.2-2.2,10-8.4,9.6-14.4c7.6,5.4,19.1,9.8,18-13.9
				c0,0,24.6,18.7,32.8-8.2c8.2-26.9-13.8-29.4-13.8-29.4s31-25.6,20.4-46.6c-11.4-22.6-31.3-10.9-31.3-10.9s4.1-30-18.1-28.7
				c-2.8,0.2-5.5,1.4-7.4,3.4c-7.6-4-17.2,8.3-17.2,8.3s-1.9-15.1-17-9.6c-6.6,2.4-8.3,7.9-8.3,13.1c-5.7-4.4-14.5-7.7-14.8,13.1
				c0,0-18.4-15.2-26.2,8.8c-7.8,24,9.4,25.1,9.4,25.1s-25.7,24-18.4,41.9c7.8,19.2,24,8,24,8s-4,22.2,8.8,24.2
				c-0.8,4.5,1.1,9.2,5.1,11.6C304.2,312.1,315.9,298.2,315.9,298.2z"/>
			<g>
				<polygon class="st1" points="430.9,259.9 430.9,382.4 73.2,382.4 73.2,259.5 227.3,238.6 				"/>
				<polygon class="st0" points="227.3,238.6 73.2,259.5 73.2,382.4 227.3,382.4 				"/>
				
					<rect x="243.5" y="288.2" transform="matrix(-1 -1.224647e-16 1.224647e-16 -1 560.3886 670.5698)" class="st2" width="73.5" height="94.2"/>
				
					<rect x="234.7" y="303.6" transform="matrix(-1.836970e-16 1 -1 -1.836970e-16 617.0668 56.6783)" class="st0" width="91.1" height="66.5"/>
				
					<rect x="234.7" y="336.6" transform="matrix(-1.836970e-16 1 -1 -1.836970e-16 617.0668 56.6783)" class="st2" width="91.1" height="0.6"/>
				<polygon class="st2" points="444.8,264.4 227.3,241.6 59.4,264.4 58.6,258.4 227.2,235.6 227.6,235.6 445.4,258.4 				"/>
			</g>
			<path class="st1" d="M429.3,121.5c5.8-12.5,1.2-21.5-13-21.5c-8.9,0-19.9,3.5-30.7,9.2c-1.2-3.3-4.6-5.2-10.1-5.2
				c-9.7,0-23,6-33.5,14.6c-2.5-1.9-6.2-3.1-10.9-3.2c-9.3-0.4-20.5,3.1-30.2,8.7c-0.8-0.9-2.3-1.5-4.3-1.6
				c-5.3-0.2-12.6,3.3-16.1,7.8c-0.2,0.3-0.4,0.6-0.6,0.8H291h8.8h30.6h15.1h11.7h18h3.3h44.8h13.2
				C441.5,126.7,436,121.7,429.3,121.5z"/>
			<path class="st1" d="M208.8,88c-0.4,0-0.8-0.1-1.2-0.1c0.4-4.1-1.8-6.7-6.3-6.7c-3.3,0-7.3,1.4-11.4,3.7
				c1.2-8-2.6-13.1-11.1-13.1c-6.9,0-15.5,3.4-24.1,8.8c-0.8-3.1-3.3-5-7.5-5c-7.5,0-18,5.8-26.5,13.9c0,0,0,0,0,0
				c-1.8-1.8-4.6-2.9-8.2-3.1c-7.1-0.4-15.9,3-23.7,8.4c-0.6-0.9-1.7-1.5-3.2-1.6c-3.9-0.2-9.2,2.8-12.3,6.8h9.1h6.1H112H123h9.8h14
				h26.4h10.3h3.7h14.6H215C218.3,94,215.7,88.7,208.8,88z"/>
			<g>
				<path class="st1" d="M65,382.4H49.8c0,0-9.4-8.3-12.4-19.5c-1.4-5.1,5.5-8.7,9.7-5C56.9,366.5,65,382.4,65,382.4z"/>
				<path class="st1" d="M71.4,382.4H56.2c0,0-8.7-17.9-5.3-30.9c1.2-4.5,6.8-5.9,10-2.5C72.3,361.7,71.4,382.4,71.4,382.4z"/>
				<path class="st1" d="M71.4,382.4h9.8c0,0,6.2-10.9,12-24.2c5.4-12.5-3.8-17.7-9.6-5.4C76.3,368.3,71.4,382.4,71.4,382.4z"/>
				<path class="st1" d="M74.1,382.4h15.2c0,0,15.3-7.3,14.5-21c-0.2-3.6-4.3-5.9-8-4.5C79.5,363.2,74.1,382.4,74.1,382.4z"/>
				<path class="st1" d="M65.6,382.4h15.2c0,0,4.6-25.4-0.9-41.4c-1.6-4.8-7.4-5.6-10.1-1.5C59.9,355,65.6,382.4,65.6,382.4z"/>
			</g>
			<rect x="110.2" y="272.7" class="st2" width="80.1" height="82.1"/>
			
				<rect x="113.4" y="277.5" transform="matrix(-1.836970e-16 1 -1 -1.836970e-16 464.0103 163.5456)" class="st3" width="73.7" height="72.5"/>
			<rect x="111.8" y="310.9" class="st2" width="77" height="5.7"/>
			
				<rect x="110.7" y="310.9" transform="matrix(-1.836970e-16 1 -1 -1.836970e-16 464.0103 163.5456)" class="st2" width="79.1" height="5.7"/>
			<polyline class="st2" points="431,354.8 340.2,354.8 340.2,274.2 431,274.2 			"/>
			
				<rect x="351.2" y="271" transform="matrix(-1.836970e-16 1 -1 -1.836970e-16 701.9202 -72.8741)" class="st3" width="72.3" height="87.1"/>
			
				<ellipse transform="matrix(0.2309 -0.973 0.973 0.2309 -43.9975 477.7672)" class="st4" cx="280.2" cy="266.7" rx="11.1" ry="11.1"/>
			<rect x="172.7" y="379.6" class="st2" width="158.8" height="2.8"/>
		</g>
	</g>
</g>
<g id="Background_1" class="st5">
	<path class="st6" d="M81.2,219.6c-19.4-40.2-23.4-87.7,17.3-109c34.8-18.3,65.7,16.6,97.7,24.8c66.4,16.9,199.4-67.3,217.5,39.6
		C440.1,331,148.7,359.5,81.2,219.6z"/>
</g>
<g id="Objects">
	<g>
		<g>
			<g>
				<path class="st7" d="M158.6,173c-0.2,2.9-0.5,5.5-0.9,8.2c-0.4,2.7-0.9,5.4-1.5,8c-1.1,5.3-2.7,10.6-4.8,15.8l-0.9,1.9l-0.2,0.5
					l-0.1,0.2c0,0.1-0.1,0.1-0.1,0.3c-0.3,0.5-0.6,1.1-1.1,1.7c-0.5,0.6-1.1,1.1-1.9,1.5c-0.7,0.4-1.5,0.6-2.2,0.7
					c-1.4,0.2-2.6-0.1-3.5-0.4c-1.9-0.6-3.2-1.4-4.4-2.3c-1.2-0.9-2.3-1.8-3.4-2.7c-4.1-3.8-7.5-7.9-10.7-12.3l3.3-2.8
					c1.9,1.7,3.8,3.5,5.7,5.2c1.9,1.7,3.9,3.3,5.9,4.7c1,0.7,2,1.4,3,1.9c1,0.5,2,1,2.6,1.1c0.3,0.1,0.5,0,0.4,0
					c-0.1,0-0.6,0.2-0.7,0.3c-0.1,0.1-0.1,0.1-0.1,0l0.3-0.8l0.7-1.7c1.6-4.7,2.9-9.6,3.8-14.5c0.5-2.5,0.8-5,1.2-7.5
					c0.4-2.5,0.6-5.1,0.9-7.5L158.6,173z"/>
				<path class="st8" d="M152.6,162.6c-3.5,0.9-6,15.5-6,15.5l9.7,6.6c0,0,9.3-14.7,6.6-18.6C160.1,162,157.8,161.2,152.6,162.6z"/>
				<polygon class="st9" points="152.9,165.8 150.2,180.5 155.7,184.2 				"/>
				<path class="st7" d="M126.3,190.7l-4.6-7.3l-2.6,8.3c0,0,3.8,4,7.2,3L126.3,190.7z"/>
				<polygon class="st7" points="114.8,181 113,188.1 119,191.7 121.6,183.4 				"/>
				<polygon class="st7" points="171.8,407.5 163.2,407.5 162.6,387.6 171.2,387.6 				"/>
				<polygon class="st7" points="247.5,367.6 240.9,373.2 226,359.8 232.5,354.3 				"/>
				<path class="st10" d="M239.1,372.5l6.3-7.3c0.2-0.3,0.6-0.3,0.9-0.1l6.5,4.2c0.7,0.4,0.8,1.4,0.2,2c-2.3,2.5-3.5,3.6-6.3,6.8
					c-1.7,2-4,5-6.4,7.7c-2.3,2.7-5.2,0.5-4.4-0.8c3.3-6,2.5-8.1,2.6-11.1C238.6,373.4,238.8,372.9,239.1,372.5z"/>
				<path class="st10" d="M162.9,406.5h9.6c0.4,0,0.6,0.2,0.7,0.6l1.1,7.6c0.1,0.8-0.6,1.5-1.4,1.5c-3.4-0.1-5-0.3-9.2-0.3
					c-2.6,0-8,0.3-11.6,0.3c-3.5,0-3.8-3.6-2.3-3.9c6.7-1.4,9.4-3.4,11.6-5.3C161.9,406.7,162.4,406.5,162.9,406.5z"/>
				<g>
					<polygon class="st11" points="162.6,387.6 162.9,397.9 171.5,397.9 171.2,387.6 					"/>
					<polygon class="st11" points="232.5,354.3 226,359.8 233.7,366.7 240.2,361.2 					"/>
				</g>
				<path class="st12" d="M158.8,123.8c5.8-8.6,19.7-11.5,28.3-3.8c11,9.8,4.3,29.1,21.2,24c16.9-5.1,32.8-3.9,32.8,4.9
					c0.1,8.8,10.4-2.4,22.6,6.6c24.6,18.2,5.8,64.9-15.9,47.1c-14.2-11.7-19.2-16.7-26.2-7.8c-7.1,8.9-32.3,4.7-34.5-6.5
					c-2.3-11.2-18.3-5.8-27.1-15.6C151.2,162.8,146.4,142.2,158.8,123.8z"/>
				<path class="st8" d="M152.6,162.6c0,0-4.1,1.4,4.1,51.8c13.8,0,28.1,0,34.8,0c-0.6-14.2-0.6-22.9,6.2-52c0,0-7.3-1.6-14.8-1.9
					c-5.9-0.3-10.7-0.5-15.8,0C160.3,161,152.6,162.6,152.6,162.6z"/>
				<path class="st7" d="M181.4,142.5c-1,5.1-2,14.4,1.6,17.8c0,0-1.4,5.2-10.9,5.2c-10.4,0-5-5.2-5-5.2c5.7-1.4,5.5-5.6,4.5-9.5
					L181.4,142.5z"/>
				<path class="st11" d="M177.4,145.9l-5.7,4.9c0.2,0.9,0.4,1.9,0.5,2.8c2.2-0.3,5.1-2.7,5.4-5
					C177.7,147.5,177.6,146.5,177.4,145.9z"/>
				<path class="st7" d="M186.8,133.2c-2,8.3-2.7,11.8-7.7,15.4c-7.5,5.3-17.2,1.1-17.7-7.6c-0.5-7.8,2.9-20.1,11.7-21.9
					C181.7,117.2,188.7,124.9,186.8,133.2z"/>
				<path class="st13" d="M156.7,214.3c0,0-6.8,66.1-6.2,92.3c0.6,27.2,10.6,89.3,10.6,89.3h11.6c0,0-1.8-60.5-0.8-87.2
					c1.1-29.1,10.4-94.3,10.4-94.3H156.7z"/>
				<polygon class="st14" points="173.7,396.3 160.1,396.3 159.1,391.9 174.3,391.4 				"/>
				<path class="st15" d="M171.8,230.8c-8.6,17.2-1.7,48.6,1.3,60.3c1.6-17.5,4.2-39,6.2-54.8C178,227.4,175.7,222.8,171.8,230.8z"
					/>
				<path class="st13" d="M165.9,214.3c0,0,7.9,68.7,13.9,90.8c7.1,26.2,51,61.4,51,61.4l8.9-7.6c0,0-31.9-38.3-37.3-52.1
					c-11.5-29.4-1.7-73.3-10.9-92.5H165.9z"/>
				<polygon class="st14" points="241.2,358.6 230.1,368 226,365.5 238.5,353.8 				"/>
				
					<ellipse transform="matrix(0.1744 -0.9847 0.9847 0.1744 11.572 280.1217)" class="st12" cx="172.8" cy="133.2" rx="1.3" ry="0.8"/>
				<path class="st12" d="M165.9,131.9c-0.1,0.7-0.6,1.2-1,1.1s-0.7-0.7-0.6-1.4s0.6-1.2,1-1.1C165.8,130.6,166.1,131.3,165.9,131.9
					z"/>
				<path class="st12" d="M165.5,130.6l-1.6-0.8C164,129.9,164.6,131.3,165.5,130.6z"/>
				<path class="st16" d="M167.8,133.5c0,0-1.7,2.7-3.2,3.9c0.8,1,2.3,0.9,2.3,0.9L167.8,133.5z"/>
				<path class="st12" d="M170,141.5c-0.4,0-0.8,0-1.2-0.1c-0.1,0-0.2-0.1-0.2-0.2c0-0.1,0.1-0.2,0.2-0.2c3,0.5,4.8-1.3,4.8-1.3
					c0.1-0.1,0.2-0.1,0.3,0c0.1,0.1,0.1,0.2,0,0.3C173.9,140,172.5,141.5,170,141.5z"/>
				<path class="st12" d="M173.4,118.3c-3.8,2.2,5.6,23,12.5,20.1c6.9-2.9,4.7-14.5,1.2-17.5C183.7,118,178.7,115.3,173.4,118.3z"/>
				<path class="st12" d="M171.2,117.3c0,0-4.6,0.7-7.7,6.4s14.6-5.6,12.1-6.4C173.1,116.5,171.2,117.3,171.2,117.3z"/>
				<path class="st7" d="M187.1,139.5c-0.7,1.6-2,2.8-3.4,3.4c-2,0.8-3.3-0.9-2.9-3c0.3-1.8,1.8-4.5,3.9-4.4
					C186.8,135.5,187.9,137.6,187.1,139.5z"/>
				<path class="st12" d="M175.8,128.8c-0.1,0-0.2,0-0.3-0.1c-1.2-1.3-2.7-1.1-2.7-1.1c-0.2,0-0.4-0.1-0.5-0.3
					c0-0.2,0.1-0.4,0.3-0.5c0.1,0,1.9-0.3,3.5,1.3c0.2,0.2,0.1,0.4,0,0.6C176,128.8,175.9,128.8,175.8,128.8z"/>
				<path class="st12" d="M163.1,127.8c-0.1,0-0.2,0-0.3-0.1c-0.2-0.2-0.2-0.4,0-0.6c1.6-1.6,3.4-1.3,3.5-1.3c0.2,0,0.4,0.3,0.3,0.5
					c0,0.2-0.3,0.4-0.5,0.3c-0.1,0-1.5-0.2-2.7,1C163.4,127.7,163.3,127.8,163.1,127.8z"/>
				<path class="st7" d="M201.5,171.5c1.9,4.7,3.5,9.3,4.9,14c1.4,4.8,2.5,9.6,3.2,14.7c0.1,1.3,0.3,2.6,0.3,3.9l0,1
					c0,0.2,0.1,1.1-0.2,2c-0.1,0.5-0.3,1-0.6,1.6c-0.3,0.5-0.8,1.1-1.3,1.4c-1,0.7-2,0.9-2.7,1c-0.7,0.1-1.3,0-1.8,0
					c-0.5-0.1-0.9-0.2-1.3-0.3c-0.8-0.2-1.5-0.5-2.1-0.7c-1.3-0.5-2.5-1.1-3.6-1.8c-4.4-2.6-8.3-5.5-12.1-8.7l2.5-3.6
					c4.2,2.1,8.5,4.3,12.7,6.1c1,0.4,2.1,0.8,3,1.1c0.5,0.1,0.9,0.3,1.3,0.3c0.2,0,0.4,0,0.5,0c0.1,0,0.2,0,0,0c-0.1,0-0.5,0-1,0.4
					c-0.6,0.4-1,1.1-1,1.5c-0.1,0.3-0.1,0.6-0.1,0.2l-0.1-0.8c-0.1-1.1-0.3-2.2-0.5-3.3c-0.4-2.2-0.9-4.4-1.5-6.7
					c-0.6-2.2-1.2-4.5-1.9-6.7c-1.4-4.4-3-8.9-4.6-13.2L201.5,171.5z"/>
				<path class="st8" d="M197.7,162.3c3.5,1.1,7.7,13.1,7.7,13.1l-13.5,9.7c0,0-4.9-10-3.5-14.5
					C189.9,165.8,193.8,161.1,197.7,162.3z"/>
				<path class="st17" d="M236.8,376.7c-0.3,0-0.6-0.2-0.9-0.5c-0.2-0.3-0.2-0.5-0.2-0.7c0.3-1,3.3-1.9,3.6-2c0.1,0,0.2,0,0.2,0.1
					c0.1,0.1,0.1,0.2,0,0.2c-0.5,1-1.6,2.7-2.7,2.8C236.9,376.7,236.8,376.7,236.8,376.7z M239,374c-1.2,0.4-2.7,1-2.9,1.6
					c0,0.1,0,0.2,0.1,0.3c0.2,0.2,0.4,0.4,0.7,0.3C237.5,376.2,238.2,375.4,239,374z"/>
				<path class="st17" d="M238,374.1c-1,0-2.1-0.2-2.5-0.7c-0.1-0.1-0.3-0.5,0-0.9c0.2-0.3,0.4-0.4,0.8-0.5c1.2-0.2,3.1,1.5,3.2,1.5
					c0.1,0,0.1,0.1,0.1,0.2c0,0.1-0.1,0.1-0.1,0.2C239.1,374,238.6,374.1,238,374.1z M236.5,372.4c0,0-0.1,0-0.1,0
					c-0.2,0-0.4,0.1-0.5,0.3c-0.1,0.2-0.1,0.3,0,0.4c0.4,0.5,2.1,0.7,3.1,0.5C238.4,373.1,237.3,372.4,236.5,372.4z"/>
				<path class="st17" d="M159.7,408c-0.9,0-1.6-0.1-2.1-0.5c-0.3-0.3-0.4-0.6-0.4-1c0-0.2,0.1-0.4,0.3-0.5c1.1-0.6,4.5,1.2,4.9,1.4
					c0.1,0,0.1,0.1,0.1,0.2c0,0.1-0.1,0.2-0.2,0.2C161.6,407.8,160.6,408,159.7,408z M158.1,406.2c-0.2,0-0.3,0-0.4,0.1
					c-0.1,0-0.1,0.1-0.1,0.2c0,0.3,0.1,0.5,0.2,0.7c0.5,0.5,1.9,0.5,3.8,0.2C160.5,406.8,158.9,406.2,158.1,406.2z"/>
				<path class="st17" d="M162.3,407.7C162.3,407.7,162.3,407.7,162.3,407.7c-1.1-0.5-3.1-2.3-3-3.3c0-0.2,0.2-0.5,0.8-0.6
					c0.4,0,0.8,0.1,1.1,0.4c1.1,0.9,1.3,3.2,1.3,3.3c0,0.1,0,0.1-0.1,0.2C162.4,407.7,162.4,407.7,162.3,407.7z M160.3,404.2
					c0,0-0.1,0-0.1,0c-0.4,0-0.4,0.2-0.4,0.2c-0.1,0.6,1.3,2,2.3,2.7c-0.1-0.7-0.4-2.1-1.1-2.6C160.8,404.3,160.5,404.2,160.3,404.2
					z"/>
				<path class="st17" d="M192.1,212.3l0.9,3.1c0.1,0.2-0.2,0.5-0.6,0.5h-35.9c-0.3,0-0.6-0.2-0.6-0.4l-0.3-3.1
					c0-0.2,0.3-0.4,0.6-0.4h35.3C191.8,212,192,212.1,192.1,212.3z"/>
				<path class="st13" d="M187.4,216.2h0.9c0.2,0,0.3-0.1,0.3-0.2l-0.4-4.1c0-0.1-0.2-0.2-0.4-0.2h-0.9c-0.2,0-0.3,0.1-0.3,0.2
					l0.4,4.1C187,216.1,187.2,216.2,187.4,216.2z"/>
				<path class="st13" d="M159.2,216.2h0.9c0.2,0,0.3-0.1,0.3-0.2L160,212c0-0.1-0.2-0.2-0.4-0.2h-0.9c-0.2,0-0.3,0.1-0.3,0.2
					l0.4,4.1C158.9,216.1,159,216.2,159.2,216.2z"/>
				<path class="st13" d="M173.3,216.2h0.9c0.2,0,0.3-0.1,0.3-0.2l-0.4-4.1c0-0.1-0.2-0.2-0.4-0.2h-0.9c-0.2,0-0.3,0.1-0.3,0.2
					l0.4,4.1C172.9,216.1,173.1,216.2,173.3,216.2z"/>
				<path class="st7" d="M187.8,196.9l-2.9-8.8l-4.6,7.4c0,0,2.7,4.8,6.3,4.7L187.8,196.9z"/>
				<g>
					<path class="st18" d="M181.8,178l-2.3,29.2c-0.1,1.6-1.5,2.8-3.1,2.7l-55.7-4.3c-1.6-0.1-2.8-1.5-2.7-3.1l2.3-29.2
						c0.1-0.8,0.5-1.6,1.1-2c0.6-0.4,1.3-0.7,2-0.6l55.7,4.3c0.8,0.1,1.4,0.4,1.9,0.9C181.6,176.4,181.9,177.1,181.8,178z"/>
					<path class="st17" d="M181.1,175.8l-23.8,16.3c-4.6,3.1-10.7,2.6-14.7-1.1l-21.1-19.8c0.6-0.4,1.3-0.7,2-0.6l55.7,4.3
						C179.9,174.9,180.6,175.3,181.1,175.8z"/>
				</g>
				<polygon class="st7" points="178.9,184 175.4,190.5 181.1,196.6 184.9,188.1 				"/>
				<path class="st12" d="M173.2,132l-1.6-0.8C171.7,131.2,172.3,132.7,173.2,132z"/>
			</g>
			<g>
				<g>
					<g>
						<rect x="321" y="250" class="st17" width="12.3" height="166.2"/>
						<polygon class="st19" points="321,250 333.3,250 333.3,262.3 321,257.8 						"/>
					</g>
					<g>
						<path class="st8" d="M307.8,210.1c0-16.2-13.1-29.3-29.3-29.3c-16.2,0-29.3,13.1-29.3,29.3V250h58.7V210.1z"/>
						<path class="st19" d="M243.6,267.1c-3.9,16.2,6,29.3,22.2,29.3c16.2,0,32.5-13.1,36.4-29.3l4.1-16.9c0.2-1-0.5-1.9-1.5-1.9
							l-55.5,0c-0.7,0-1.3,0.5-1.5,1.2L243.6,267.1z"/>
						<path class="st17" d="M241.2,267.1c-3.9,16.2,6,29.3,22.2,29.3c16.2,0,32.5-13.1,36.4-29.3l4.1-16.9c0.2-1-0.5-1.9-1.5-1.9
							l-55.5,0c-0.7,0-1.3,0.5-1.5,1.2L241.2,267.1z"/>
						<path class="st17" d="M376.8,210.1V250h-69.1v-39.9c0-6.8-2.3-13-6.2-18c-5.4-6.9-13.7-11.3-23.1-11.3h69
							c9.4,0,17.8,4.4,23.2,11.3C374.5,197.1,376.8,203.3,376.8,210.1z"/>
						<path class="st20" d="M376.8,210.1v10.7h-69.1v-10.7c0-6.8-2.3-13-6.2-18h69.1C374.5,197.1,376.8,203.3,376.8,210.1z"/>
						<path class="st8" d="M317.4,225.9v-59c0-2.2,2-3.9,4.2-3.6l14.1,2.3c1,0.2,1.8,1.1,1.8,2.1v3.7c0,1.2-1,2.2-2.2,2.2h-13.5
							v52.2c0,1.2-1,2.2-2.2,2.2l0,0C318.4,228.2,317.4,227.2,317.4,225.9z"/>
					</g>
				</g>
				<g>
					<g>
						<path class="st18" d="M278.5,188.6v29.3c0,1.6-1.3,2.9-2.9,2.9h-55.8c-1.6,0-2.9-1.3-2.9-2.9v-29.3c0-0.8,0.4-1.6,0.9-2.1
							c0.5-0.5,1.2-0.8,2-0.8h55.8c0.8,0,1.4,0.3,2,0.8C278.1,187,278.5,187.7,278.5,188.6z"/>
						<path class="st17" d="M277.5,186.5L255,204.5c-4.3,3.5-10.4,3.5-14.7,0l-22.5-18.1c0.5-0.5,1.2-0.8,2-0.8h55.8
							C276.3,185.7,277,186,277.5,186.5z"/>
					</g>
					<g>
						<path class="st18" d="M235.7,232.6v29.3c0,1.6-1.3,2.9-2.9,2.9H177c-1.6,0-2.9-1.3-2.9-2.9v-29.3c0-0.8,0.4-1.6,0.9-2.1
							c0.5-0.5,1.2-0.8,2-0.8h55.8c0.8,0,1.4,0.3,2,0.8C235.3,231,235.7,231.8,235.7,232.6z"/>
						<path class="st17" d="M234.8,230.5l-22.5,18.1c-4.3,3.5-10.4,3.5-14.7,0L175,230.5c0.5-0.5,1.2-0.8,2-0.8h55.8
							C233.6,229.7,234.2,230,234.8,230.5z"/>
					</g>
					<g>
						<g>
							<path class="st18" d="M307.8,210.6v35.1h-20.9c-1.6,0-2.9-1.3-2.9-2.9v-29.3c0-0.8,0.4-1.6,0.9-2.1c0.5-0.5,1.2-0.8,2-0.8
								H307.8z"/>
							<path class="st17" d="M307.8,210.6v19.1c-0.1-0.1-0.2-0.1-0.3-0.2L285,211.4c0.5-0.5,1.2-0.8,2-0.8H307.8z"/>
						</g>
						<rect x="303.2" y="210.6" class="st20" width="4.6" height="35.1"/>
					</g>
				</g>
			</g>
		</g>
	</g>
</g>
</svg>
