<?xml version="1.0" encoding="utf-8"?><svg xmlns="http://www.w3.org/2000/svg" xmlns:xlink="http://www.w3.org/1999/xlink"><symbol viewBox="0 0 49 30" id="dotted-arrow" xmlns="http://www.w3.org/2000/svg"><g fill-rule="evenodd"><circle cx="32.5" cy="15.5" r="1.5"/><circle cx="38.5" cy="15.5" r="1.5"/><circle cx="26.5" cy="15.5" r="1.5"/><circle cx="20.5" cy="15.5" r="1.5"/><circle cx="14.5" cy="15.5" r="1.5"/><circle cx="8.5" cy="15.5" r="1.5"/><circle cx="2.5" cy="15.5" r="1.5"/><path fill-rule="nonzero" d="M35.043 1.523a1.015 1.015 0 0 0 0 1.4l11.91 12.3-11.91 12.325a1.015 1.015 0 0 0 0 1.4.934.934 0 0 0 1.352 0l12.562-13.001a.983.983 0 0 0 .28-.7c0-.24-.093-.506-.28-.699l-12.562-13a.915.915 0 0 0-1.352-.025z"/></g></symbol><symbol viewBox="0 0 56 52" id="download" xmlns="http://www.w3.org/2000/svg"><path d="M54.216 25.391a1.59 1.59 0 0 0-1.596 1.596v14.521c0 3.95-3.217 7.155-7.154 7.155H10.44c-3.95 0-7.154-3.217-7.154-7.155V26.751a1.59 1.59 0 0 0-1.597-1.596A1.59 1.59 0 0 0 .093 26.75v14.757c0 5.712 4.647 10.347 10.347 10.347h35.026c5.711 0 10.346-4.647 10.346-10.347v-14.52c0-.876-.71-1.597-1.596-1.597z"/><path d="M26.83 39.179c.307.307.72.473 1.123.473.402 0 .816-.154 1.123-.473l10.146-10.146a1.592 1.592 0 0 0 0-2.258 1.592 1.592 0 0 0-2.259 0L29.55 34.2V1.812A1.59 1.59 0 0 0 27.953.216a1.59 1.59 0 0 0-1.597 1.596v32.389l-7.426-7.426a1.592 1.592 0 0 0-2.258 0 1.592 1.592 0 0 0 0 2.258L26.829 39.18z"/></symbol><symbol viewBox="0 0 56 59" id="invitation" xmlns="http://www.w3.org/2000/svg"><path d="M54.735 55.818L31.454 38.173c-2.065-1.573-4.845-1.575-6.907-.002L1.265 55.818a1.206 1.206 0 0 0-.235 1.694 1.211 1.211 0 0 0 1.694.235l23.284-17.65a3.261 3.261 0 0 1 3.984.002l23.284 17.648a1.208 1.208 0 0 0 1.694-.235c.404-.532.3-1.29-.235-1.694z"/><path d="M55.478 20.971a1.208 1.208 0 0 0-1.694-.235l-23.415 17.72a1.208 1.208 0 1 0 1.46 1.93l23.414-17.721a1.208 1.208 0 0 0 .235-1.694zM25.63 38.454L2.217 20.734a1.208 1.208 0 1 0-1.46 1.929l23.415 17.72a1.2 1.2 0 0 0 .731.246 1.208 1.208 0 0 0 .728-2.176z"/><path d="M54.527 19.616l-3.971-3.309a1.21 1.21 0 1 0-1.551 1.856l3.968 3.309c.281.232.438.574.438.932V55.15c0 .666-.544 1.21-1.21 1.21H3.8c-.666 0-1.21-.544-1.21-1.21V22.404c0-.36.157-.7.435-.932l3.97-3.308a1.21 1.21 0 1 0-1.55-1.859l-3.973 3.31A3.633 3.633 0 0 0 .17 22.404V55.15a3.635 3.635 0 0 0 3.63 3.63h48.4a3.635 3.635 0 0 0 3.63-3.63V22.404c0-1.08-.474-2.094-1.304-2.788z"/><path d="M49.781.698H6.22a1.21 1.21 0 0 0-1.21 1.21v23.204a1.21 1.21 0 0 0 2.42 0V3.118h41.142v22.006a1.21 1.21 0 0 0 2.42 0V1.908a1.21 1.21 0 0 0-1.21-1.21z"/><path d="M28 10.378a1.21 1.21 0 0 0-1.21 1.21v14.52a1.21 1.21 0 0 0 2.42 0v-14.52a1.21 1.21 0 0 0-1.21-1.21z"/><path d="M35.26 17.638H20.74a1.21 1.21 0 0 0 0 2.42h14.52a1.21 1.21 0 0 0 0-2.42z"/></symbol><symbol viewBox="0 0 483.3 483.3" id="mail" xmlns="http://www.w3.org/2000/svg"><path d="M424.3 57.75H59.1c-32.6 0-59.1 26.5-59.1 59.1v249.6c0 32.6 26.5 59.1 59.1 59.1h365.1c32.6 0 59.1-26.5 59.1-59.1v-249.5c.1-32.6-26.4-59.2-59-59.2zm32.1 308.7c0 17.7-14.4 32.1-32.1 32.1H59.1c-17.7 0-32.1-14.4-32.1-32.1v-249.5c0-17.7 14.4-32.1 32.1-32.1h365.1c17.7 0 32.1 14.4 32.1 32.1v249.5h.1z"/><path d="M304.8 238.55l118.2-106c5.5-5 6-13.5 1-19.1-5-5.5-13.5-6-19.1-1l-163 146.3-31.8-28.4c-.1-.1-.2-.2-.2-.3-.7-.7-1.4-1.3-2.2-1.9L78.3 112.35c-5.6-5-14.1-4.5-19.1 1.1-5 5.6-4.5 14.1 1.1 19.1l119.6 106.9-119.1 111.5c-5.4 5.1-5.7 13.6-.6 19.1 2.7 2.8 6.3 4.3 9.9 4.3 3.3 0 6.6-1.2 9.2-3.6l120.9-113.1 32.8 29.3c2.6 2.3 5.8 3.4 9 3.4s6.5-1.2 9-3.5l33.7-30.2 120.2 114.2c2.6 2.5 6 3.7 9.3 3.7 3.6 0 7.1-1.4 9.8-4.2 5.1-5.4 4.9-14-.5-19.1l-118.7-112.7z"/></symbol><symbol viewBox="0 0 80 80" id="network" xmlns="http://www.w3.org/2000/svg"><path d="M46.275 16.223c1.873-1.708 3.058-4.16 3.058-6.89C49.333 4.188 45.147 0 40 0s-9.333 4.188-9.333 9.333c0 2.73 1.185 5.182 3.058 6.89C28.193 17.289 24 22.16 24 28v5.333c0 .738.597 1.334 1.333 1.334h29.334c.736 0 1.333-.596 1.333-1.334V28c0-5.839-4.193-10.71-9.725-11.777zm-12.942-6.89A6.674 6.674 0 0 1 40 2.667a6.674 6.674 0 0 1 6.667 6.666A6.674 6.674 0 0 1 40 16a6.674 6.674 0 0 1-6.667-6.667zm20 22.667H26.667v-4c0-5.145 4.186-9.333 9.333-9.333h8c5.147 0 9.333 4.188 9.333 9.333v4zM22.275 61.556c1.873-1.708 3.058-4.16 3.058-6.89 0-5.145-4.186-9.333-9.333-9.333s-9.333 4.188-9.333 9.334c0 2.729 1.185 5.181 3.058 6.889C4.193 62.623 0 67.495 0 73.333v5.334C0 79.404.597 80 1.333 80h29.334c.736 0 1.333-.596 1.333-1.333v-5.334c0-5.838-4.193-10.71-9.725-11.777zm-12.942-6.89A6.674 6.674 0 0 1 16 48a6.674 6.674 0 0 1 6.667 6.667A6.674 6.674 0 0 1 16 61.333a6.674 6.674 0 0 1-6.667-6.666zm20 22.667H2.667v-4C2.667 68.188 6.853 64 12 64h8c5.147 0 9.333 4.188 9.333 9.333v4zm40.942-15.777c1.873-1.708 3.058-4.16 3.058-6.89 0-5.145-4.186-9.333-9.333-9.333s-9.333 4.188-9.333 9.334c0 2.729 1.185 5.181 3.058 6.889C52.193 62.623 48 67.495 48 73.333v5.334c0 .737.597 1.333 1.333 1.333h29.334c.736 0 1.333-.596 1.333-1.333v-5.334c0-5.838-4.193-10.71-9.725-11.777zm-12.942-6.89A6.674 6.674 0 0 1 64 48a6.674 6.674 0 0 1 6.667 6.667A6.674 6.674 0 0 1 64 61.333a6.674 6.674 0 0 1-6.667-6.666zm20 22.667H50.667v-4C50.667 68.188 54.853 64 60 64h8c5.147 0 9.333 4.188 9.333 9.333v4zM8.025 42.624l-2.664.104c.036.919.11 1.85.219 2.764l2.648-.317a32.057 32.057 0 0 1-.203-2.551zm-2.446-5.428c-.108.91-.183 1.839-.218 2.763l2.664.104c.034-.854.102-1.711.202-2.552l-2.648-.315zm13.406-23.439a34.681 34.681 0 0 0-2.137 1.77l1.783 1.984a31.037 31.037 0 0 1 1.97-1.632l-1.616-2.122zM8.623 26.573a34.791 34.791 0 0 0-1.08 2.558l2.496.937c.3-.797.634-1.59.996-2.356l-2.412-1.139zM6.67 31.764c-.253.881-.473 1.79-.655 2.693l2.614.527c.168-.833.371-1.67.606-2.485l-2.564-.735zm8.193-14.301a35.268 35.268 0 0 0-1.828 2.082l2.073 1.678a32.2 32.2 0 0 1 1.688-1.924l-1.933-1.836zm8.781-6.702c-.807.431-1.61.904-2.392 1.407l1.445 2.243a30.88 30.88 0 0 1 2.203-1.298l-1.256-2.352zM11.379 21.767a34.646 34.646 0 0 0-1.475 2.349l2.313 1.325c.422-.736.88-1.465 1.362-2.166l-2.2-1.508zM33.683 72.71l-.527 2.614c.897.181 1.82.327 2.741.435l.31-2.648c-.847-.1-1.698-.235-2.524-.402zm12.718-.017c-.828.168-1.677.306-2.528.41l.322 2.648a35.44 35.44 0 0 0 2.736-.443l-.53-2.615zm-5.077.614c-.852.033-1.713.037-2.56.004l-.105 2.664c.444.018.892.026 1.345.026a42.21 42.21 0 0 0 1.427-.03l-.107-2.664zm21.833-57.77l-1.781 1.984c.635.571 1.25 1.171 1.833 1.784l1.936-1.833a34.485 34.485 0 0 0-1.988-1.935zm3.813 4.016l-2.073 1.678a32.447 32.447 0 0 1 1.53 2.053l2.198-1.508a35.837 35.837 0 0 0-1.654-2.223zm7.669 20.41l-2.664.104a32.159 32.159 0 0 1 0 2.561l2.664.104a34.842 34.842 0 0 0 0-2.77zm-4.538-15.84l-2.314 1.326c.422.738.82 1.502 1.182 2.27l2.412-1.139a34.904 34.904 0 0 0-1.28-2.457zm2.359 5.013l-2.496.939c.299.794.568 1.612.803 2.428l2.564-.735a34.342 34.342 0 0 0-.871-2.632zm1.524 5.327l-2.613.525c.168.835.304 1.685.402 2.528l2.648-.315a34.297 34.297 0 0 0-.437-2.738zm-15.228-22.29l-1.444 2.243c.712.459 1.416.953 2.095 1.472l1.618-2.121a34.726 34.726 0 0 0-2.269-1.594zm-4.884-2.618l-1.068 2.442a32.1 32.1 0 0 1 2.301 1.119l1.262-2.35a33.33 33.33 0 0 0-2.495-1.211z"/></symbol><symbol viewBox="0 0 52 56" id="register" xmlns="http://www.w3.org/2000/svg"><path d="M25.367 1.808c0 .887.71 1.596 1.597 1.596h14.52c3.95 0 7.155 3.216 7.155 7.154v35.026c0 3.95-3.216 7.154-7.154 7.154H26.727a1.59 1.59 0 0 0-1.596 1.596c0 .887.71 1.597 1.596 1.597h14.758c5.711 0 10.347-4.648 10.347-10.347V10.558c0-5.711-4.648-10.347-10.347-10.347H26.964c-.875 0-1.597.71-1.597 1.597z"/><path d="M39.155 29.194c.308-.307.473-.721.473-1.123s-.153-.816-.473-1.123L29.01 16.802a1.592 1.592 0 0 0-2.258 0 1.592 1.592 0 0 0 0 2.258l7.426 7.415H1.788A1.59 1.59 0 0 0 .192 28.07c0 .887.71 1.596 1.596 1.596h32.389l-7.426 7.426a1.592 1.592 0 0 0 0 2.259 1.592 1.592 0 0 0 2.258 0l10.146-10.158z"/></symbol><symbol viewBox="0 0 128 80" id="structure" xmlns="http://www.w3.org/2000/svg"><g fill-rule="evenodd"><path d="M70.275 16.223c1.873-1.708 3.058-4.16 3.058-6.89C73.333 4.188 69.147 0 64 0s-9.333 4.188-9.333 9.333c0 2.73 1.185 5.182 3.058 6.89C52.193 17.289 48 22.16 48 28v5.333c0 .738.597 1.334 1.333 1.334h29.334c.736 0 1.333-.596 1.333-1.334V28c0-5.839-4.193-10.71-9.725-11.777zm-12.942-6.89A6.674 6.674 0 0 1 64 2.667a6.674 6.674 0 0 1 6.667 6.666A6.674 6.674 0 0 1 64 16a6.674 6.674 0 0 1-6.667-6.667zm20 22.667H50.667v-4c0-5.145 4.186-9.333 9.333-9.333h8c5.147 0 9.333 4.188 9.333 9.333v4zM22.275 61.556c1.873-1.708 3.058-4.16 3.058-6.89 0-5.145-4.186-9.333-9.333-9.333s-9.333 4.188-9.333 9.334c0 2.729 1.185 5.181 3.058 6.889C4.193 62.623 0 67.495 0 73.333v5.334C0 79.404.597 80 1.333 80h29.334c.736 0 1.333-.596 1.333-1.333v-5.334c0-5.838-4.193-10.71-9.725-11.777zm-12.942-6.89A6.674 6.674 0 0 1 16 48a6.674 6.674 0 0 1 6.667 6.667A6.674 6.674 0 0 1 16 61.333a6.674 6.674 0 0 1-6.667-6.666zm20 22.667H2.667v-4C2.667 68.188 6.853 64 12 64h8c5.147 0 9.333 4.188 9.333 9.333v4zm40.942-15.777c1.873-1.708 3.058-4.16 3.058-6.89 0-5.145-4.186-9.333-9.333-9.333s-9.333 4.188-9.333 9.334c0 2.729 1.185 5.181 3.058 6.889C52.193 62.623 48 67.495 48 73.333v5.334c0 .737.597 1.333 1.333 1.333h29.334c.736 0 1.333-.596 1.333-1.333v-5.334c0-5.838-4.193-10.71-9.725-11.777zm-12.942-6.89A6.674 6.674 0 0 1 64 48a6.674 6.674 0 0 1 6.667 6.667A6.674 6.674 0 0 1 64 61.333a6.674 6.674 0 0 1-6.667-6.666zm20 22.667H50.667v-4C50.667 68.188 54.853 64 60 64h8c5.147 0 9.333 4.188 9.333 9.333v4zm40.942-15.777c1.873-1.708 3.058-4.16 3.058-6.89 0-5.145-4.186-9.333-9.333-9.333s-9.333 4.188-9.333 9.334c0 2.729 1.185 5.181 3.058 6.889C100.193 62.623 96 67.495 96 73.333v5.334c0 .737.597 1.333 1.333 1.333h29.334c.736 0 1.333-.596 1.333-1.333v-5.334c0-5.838-4.193-10.71-9.725-11.777zm-12.942-6.89A6.674 6.674 0 0 1 112 48a6.674 6.674 0 0 1 6.667 6.667A6.674 6.674 0 0 1 112 61.333a6.674 6.674 0 0 1-6.667-6.666zm20 22.667H98.667v-4c0-5.145 4.186-9.333 9.333-9.333h8c5.147 0 9.333 4.188 9.333 9.333v4z" fill-rule="nonzero"/><path d="M84 12h3v3h-3zm9 0h3v3h-3zm9 0h3v3h-3zm9 0h3v3h-3zm0 9h3v3h-3zm0 9h3v3h-3zm0 9h3v3h-3zM27 12h-3v3h3zm9 0h-3v3h3zm9 0h-3v3h3zM32 56h-3v3h3zm48 0h-3v3h3zm-39 0h-3v3h3zm48 0h-3v3h3zm-39 0h-3v3h3zm48 0h-3v3h3zM18 12h-3v3h3zm0 9h-3v3h3zm0 9h-3v3h3zm0 9h-3v3h3zm48-1h-3v3h3z"/></g></symbol><symbol viewBox="0 0 512 512" id="tick" xmlns="http://www.w3.org/2000/svg"><path d="M504.502 75.496c-9.997-9.998-26.205-9.998-36.204 0L161.594 382.203 43.702 264.311c-9.997-9.998-26.205-9.997-36.204 0-9.998 9.997-9.998 26.205 0 36.203l135.994 135.992c9.994 9.997 26.214 9.99 36.204 0L504.502 111.7c9.998-9.997 9.997-26.206 0-36.204z"/></symbol><symbol viewBox="0 0 80 80" id="time-zone" xmlns="http://www.w3.org/2000/svg"><path d="M18.667 0C8.357 0 0 8.357 0 18.667c0 10.309 8.357 18.666 18.667 18.666 10.309 0 18.666-8.357 18.666-18.666C37.323 8.362 28.971.01 18.667 0zm0 34.667c-8.837 0-16-7.164-16-16 0-8.837 7.163-16 16-16 8.836 0 16 7.163 16 16-.01 8.832-7.168 15.99-16 16zm42.666 2.666C71.643 37.333 80 28.976 80 18.667 80 8.357 71.643 0 61.333 0 51.024 0 42.667 8.357 42.667 18.667c.01 10.304 8.362 18.655 18.666 18.666zm0-34.666c8.837 0 16 7.163 16 16 0 8.836-7.163 16-16 16-8.836 0-16-7.164-16-16 .01-8.833 7.168-15.99 16-16zm-42.666 40C8.357 42.667 0 51.024 0 61.333 0 71.643 8.357 80 18.667 80c10.309 0 18.666-8.357 18.666-18.667-.01-10.304-8.362-18.655-18.666-18.666zm0 34.666c-8.837 0-16-7.163-16-16 0-8.836 7.163-16 16-16 8.836 0 16 7.164 16 16-.01 8.833-7.168 15.99-16 16zm42.666-34.666c-10.309 0-18.666 8.357-18.666 18.666C42.667 71.643 51.024 80 61.333 80 71.643 80 80 71.643 80 61.333c-.011-10.304-8.362-18.655-18.667-18.666zm0 34.666c-8.836 0-16-7.163-16-16 0-8.836 7.164-16 16-16 8.837 0 16 7.164 16 16-.01 8.833-7.167 15.99-16 16z"/><path d="M18.667 6.667c-.737 0-1.334.597-1.334 1.333v9.333h-6.666a1.333 1.333 0 0 0 0 2.667h8c.736 0 1.333-.597 1.333-1.333V8c0-.736-.597-1.333-1.333-1.333zm47.057 18.276a1.333 1.333 0 0 0 1.885-1.886l-4.942-4.942V8A1.333 1.333 0 0 0 60 8v10.667c0 .353.14.692.39.942l5.334 5.334zM25.267 52.848l-6.6 6.6-4.714-4.715a1.332 1.332 0 0 0-2.249.59c-.121.465.017.96.364 1.295l5.656 5.658c.52.52 1.365.52 1.885 0l7.543-7.543a1.333 1.333 0 0 0-1.885-1.885zm36.066-3.515c-.736 0-1.333.597-1.333 1.334v11.448l-5.61 5.609a1.333 1.333 0 1 0 1.886 1.885l6-6c.25-.25.39-.589.39-.942v-12c0-.737-.596-1.334-1.333-1.334z"/></symbol></svg>